<svg id="Layer_1" data-name="Layer 1" xmlns="http://www.w3.org/2000/svg" viewBox="0 0 256.06 536"><defs><style>.cls-1{fill:none;stroke:#807f7f;stroke-linejoin:round;stroke-width:0.5px;stroke-dasharray:2 2;}</style></defs><title>ots-bracket-tool-mobile</title><path class="cls-1" d="M4.33.25H51.79c11.3,0,15.82,0,18.08,1.56s2.26,4.69,2.26,7.08v5.73" transform="translate(-1.93)"/><path class="cls-1" d="M4.33,30.25H51.79c11.3,0,15.82,0,18.08-1.56s2.26-4.69,2.26-7.08V15.88" transform="translate(-1.93)"/><path class="cls-1" d="M4.33,57.75H51.79c11.3,0,15.82,0,18.08,1.56s2.26,4.69,2.26,7.08v5.73" transform="translate(-1.93)"/><path class="cls-1" d="M4.33,87.75H51.79c11.3,0,15.82,0,18.08-1.56s2.26-4.69,2.26-7.08V73.38" transform="translate(-1.93)"/><path class="cls-1" d="M4.33,115.25H51.79c11.3,0,15.82,0,18.08,1.56s2.26,4.69,2.26,7.08v5.73" transform="translate(-1.93)"/><path class="cls-1" d="M4.33,145.25H51.79c11.3,0,15.82,0,18.08-1.56s2.26-4.69,2.26-7.08v-5.73" transform="translate(-1.93)"/><path class="cls-1" d="M4.33,172.75H51.79c11.3,0,15.82,0,18.08,1.56s2.26,4.69,2.26,7.08v5.73" transform="translate(-1.93)"/><path class="cls-1" d="M4.33,202.75H51.79c11.3,0,15.82,0,18.08-1.56s2.26-4.69,2.26-7.08v-5.73" transform="translate(-1.93)"/><path class="cls-1" d="M1.93,230.25H49.39c11.3,0,15.82,0,18.08,1.56s2.26,4.69,2.26,7.08v5.73" transform="translate(-1.93)"/><path class="cls-1" d="M1.93,260.25H49.39c11.3,0,15.82,0,18.08-1.56s2.26-4.69,2.26-7.08v-5.73" transform="translate(-1.93)"/><path class="cls-1" d="M1.93,287.75H49.39c11.3,0,15.82,0,18.08,1.56s2.26,4.69,2.26,7.08v5.73" transform="translate(-1.93)"/><path class="cls-1" d="M1.93,317.75H49.39c11.3,0,15.82,0,18.08-1.56s2.26-4.69,2.26-7.08v-5.73" transform="translate(-1.93)"/><path class="cls-1" d="M1.93,345.25H49.39c11.3,0,15.82,0,18.08,1.56s2.26,4.69,2.26,7.08v5.73" transform="translate(-1.93)"/><path class="cls-1" d="M1.93,375.25H49.39c11.3,0,15.82,0,18.08-1.56s2.26-4.69,2.26-7.08v-5.73" transform="translate(-1.93)"/><path class="cls-1" d="M1.93,402.75H49.39c11.3,0,15.82,0,18.08,1.56s2.26,4.69,2.26,7.08v5.73" transform="translate(-1.93)"/><path class="cls-1" d="M1.93,432.75H49.39c11.3,0,15.82,0,18.08-1.56s2.26-4.69,2.26-7.08v-5.73" transform="translate(-1.93)"/><path class="cls-1" d="M72.13,15.25h47.46c11.3,0,15.82,0,18.08,4s2.26,11.87,2.26,16.67V44" transform="translate(-1.93)"/><path class="cls-1" d="M72.13,70.25h47.46c11.3,0,15.82,0,18.08-4s2.26-11.87,2.26-16.67V41.5" transform="translate(-1.93)"/><path class="cls-1" d="M72.13,130.25h47.46c11.3,0,15.82,0,18.08,4s2.26,11.87,2.26,16.67v8.13" transform="translate(-1.93)"/><path class="cls-1" d="M72.13,185.25h47.46c11.3,0,15.82,0,18.08-4s2.26-11.87,2.26-16.67v-8.12" transform="translate(-1.93)"/><path class="cls-1" d="M72.13,245.25h47.46c11.3,0,15.82,0,18.08,4s2.26,11.87,2.26,16.67v8.13" transform="translate(-1.93)"/><path class="cls-1" d="M72.13,300.25h47.46c11.3,0,15.82,0,18.08-4s2.26-11.87,2.26-16.67v-8.12" transform="translate(-1.93)"/><path class="cls-1" d="M72.13,360.25h47.46c11.3,0,15.82,0,18.08,4s2.26,11.87,2.26,16.67v8.13" transform="translate(-1.93)"/><path class="cls-1" d="M72.13,415.25h47.46c11.3,0,15.82,0,18.08-4s2.26-11.87,2.26-16.67v-8.12" transform="translate(-1.93)"/><path class="cls-1" d="M142.33,42.88h47.46c11.3,0,15.82,0,18.08,8.75s2.26,26.25,2.26,35.83v12.92" transform="translate(-1.93)"/><path class="cls-1" d="M142.33,159.88h47.46c11.3,0,15.82,0,18.08-8.75s2.26-26.25,2.26-35.83V102.38" transform="translate(-1.93)"/><path class="cls-1" d="M140,273.38h47.46c11.3,0,15.82,0,18.08,8.75s2.26,26.25,2.26,35.83v12.92" transform="translate(-1.93)"/><path class="cls-1" d="M140,387.38h47.46c11.3,0,15.82,0,18.08-8.75s2.26-26.25,2.26-35.83V329.88" transform="translate(-1.93)"/><path class="cls-1" d="M210.53,102.38h23.73c5.65,0,7.91,0,9,17.48s1.13,52.44,1.13,71.59v25.8" transform="translate(-1.93)"/><path class="cls-1" d="M244.73,216.56v25.81c0,19.15,0,54.11-1.23,71.59s-3.69,17.48-9.84,17.48H207.83" transform="translate(-1.93)"/><path class="cls-1" d="M245.52,216.56H254c2,0,2.87,0,3.25,37.54s.41,112.62.41,153.73,0,42.89,0,38.42c0,.85-.06,17.36-9.63,25.33-5.7,4.75-48.36,3.35-48.36,3.35h-130" transform="translate(-1.93)"/></svg>