<svg id="Layer_1" data-name="Layer 1" xmlns="http://www.w3.org/2000/svg" viewBox="0 0 928 514.5"><defs><style>.cls-1{fill:none;stroke:#807f7f;stroke-linejoin:round;stroke-width:0.5px;stroke-dasharray:2 2;}</style></defs><title>ots-bracket-tool-new</title><path class="cls-1" d="M17,33.75h97.73c23.27,0,32.57,0,37.23,5.25s4.66,15.75,4.66,21.84v9.45" transform="translate(-17 -33.5)"/><path class="cls-1" d="M17,109.34h97.73c23.27,0,32.57,0,37.23-5.25s4.66-15.75,4.66-21.84V72.8" transform="translate(-17 -33.5)"/><path class="cls-1" d="M17,179.89h97.73c23.27,0,32.57,0,37.23,5.25s4.66,15.75,4.66,21.84v9.45" transform="translate(-17 -33.5)"/><path class="cls-1" d="M17,255.48h97.73c23.27,0,32.57,0,37.23-5.25s4.66-15.75,4.66-21.84v-9.44" transform="translate(-17 -33.5)"/><path class="cls-1" d="M17,326h97.73c23.27,0,32.57,0,37.23,5.25s4.66,15.75,4.66,21.84v9.45" transform="translate(-17 -33.5)"/><path class="cls-1" d="M17,401.61h97.73c23.27,0,32.57,0,37.23-5.25s4.66-15.75,4.66-21.84v-9.44" transform="translate(-17 -33.5)"/><path class="cls-1" d="M17,472.16h97.73c23.27,0,32.57,0,37.23,5.25s4.66,15.75,4.66,21.84v9.45" transform="translate(-17 -33.5)"/><path class="cls-1" d="M17,547.75h97.73c23.27,0,32.57,0,37.23-5.25s4.66-15.75,4.66-21.84v-9.44" transform="translate(-17 -33.5)"/><path class="cls-1" d="M945,33.75H847.27c-23.27,0-32.57,0-37.23,5.25s-4.66,15.75-4.66,21.84v9.45" transform="translate(-17 -33.5)"/><path class="cls-1" d="M945,109.34H847.27c-23.27,0-32.57,0-37.23-5.25s-4.66-15.75-4.66-21.84V72.8" transform="translate(-17 -33.5)"/><path class="cls-1" d="M945,179.89H847.27c-23.27,0-32.57,0-37.23,5.25s-4.66,15.75-4.66,21.84v9.45" transform="translate(-17 -33.5)"/><path class="cls-1" d="M945,255.48H847.27c-23.27,0-32.57,0-37.23-5.25s-4.66-15.75-4.66-21.84v-9.44" transform="translate(-17 -33.5)"/><path class="cls-1" d="M945,326H847.27c-23.27,0-32.57,0-37.23,5.25s-4.66,15.75-4.66,21.84v9.45" transform="translate(-17 -33.5)"/><path class="cls-1" d="M945,401.61H847.27c-23.27,0-32.57,0-37.23-5.25s-4.66-15.75-4.66-21.84v-9.44" transform="translate(-17 -33.5)"/><path class="cls-1" d="M945,472.16H847.27c-23.27,0-32.57,0-37.23,5.25s-4.66,15.75-4.66,21.84v9.45" transform="translate(-17 -33.5)"/><path class="cls-1" d="M945,547.75H847.27c-23.27,0-32.57,0-37.23-5.25s-4.66-15.75-4.66-21.84v-9.44" transform="translate(-17 -33.5)"/><path class="cls-1" d="M156.61,70.28h97.73c23.27,0,32.57,0,37.23,11.34s4.66,34,4.66,46.19v15.54" transform="translate(-17 -33.5)"/><path class="cls-1" d="M156.61,216.42h97.73c23.27,0,32.57,0,37.23-11.34s4.66-34,4.66-46.19V143.35" transform="translate(-17 -33.5)"/><path class="cls-1" d="M156.61,362.56h97.73c23.27,0,32.57,0,37.23,11.34s4.66,34,4.66,46.19v15.54" transform="translate(-17 -33.5)"/><path class="cls-1" d="M156.61,508.7h97.73c23.27,0,32.57,0,37.23-11.34s4.66-34,4.66-46.19V435.63" transform="translate(-17 -33.5)"/><path class="cls-1" d="M805.39,70.28H707.66c-23.27,0-32.57,0-37.23,11.34s-4.7,34-4.7,46.19v15.54" transform="translate(-17 -33.5)"/><path class="cls-1" d="M805.39,216.42H707.66c-23.27,0-32.57,0-37.23-11.34s-4.7-34-4.7-46.19V143.35" transform="translate(-17 -33.5)"/><path class="cls-1" d="M805.39,362.56H707.66c-23.27,0-32.57,0-37.23,11.34s-4.7,34-4.7,46.19v15.54" transform="translate(-17 -33.5)"/><path class="cls-1" d="M805.39,508.7H707.66c-23.27,0-32.57,0-37.23-11.34s-4.7-34-4.7-46.19V435.63" transform="translate(-17 -33.5)"/><path class="cls-1" d="M296.22,143.35h97.73c23.27,0,32.57,0,37.23,23.51s4.66,70.55,4.66,94.91v27.72" transform="translate(-17 -33.5)"/><path class="cls-1" d="M296.22,435.63h97.73c23.27,0,32.57,0,37.23-23.51s4.66-70.55,4.66-94.91V289.49" transform="translate(-17 -33.5)"/><path class="cls-1" d="M665.73,143.35H568c-23.27,0-32.57,0-37.23,23.51s-4.66,70.55-4.66,94.91v27.72" transform="translate(-17 -33.5)"/><path class="cls-1" d="M665.73,435.63H568c-23.27,0-32.57,0-37.23-23.51s-4.66-70.55-4.66-94.91V289.49" transform="translate(-17 -33.5)"/><path class="cls-1" d="M435.83,289.49h90.34" transform="translate(-17 -33.5)"/><path class="cls-1" d="M481,129.5v160" transform="translate(-17 -33.5)"/></svg>