<svg id="Layer_1" data-name="Layer 1" xmlns="http://www.w3.org/2000/svg" viewBox="0 0 960 600"><defs><style>.cls-1{fill:none;stroke:#807f7f;stroke-linejoin:round;stroke-width:0.5px;stroke-dasharray:2 2;}</style></defs><title>ots-bracket-tool</title><path class="cls-1" d="M35,35h94c22.38,0,31.33,0,35.81,5.21s4.48,15.63,4.48,21.67v9.38" transform="translate(-35 -34.75)"/><path class="cls-1" d="M35,110h94c22.38,0,31.33,0,35.81-5.21s4.48-15.63,4.48-21.67V73.75" transform="translate(-35 -34.75)"/><path class="cls-1" d="M35,180h94c22.38,0,31.33,0,35.81,5.21s4.48,15.63,4.48,21.67v9.38" transform="translate(-35 -34.75)"/><path class="cls-1" d="M35,255h94c22.38,0,31.33,0,35.81-5.21s4.48-15.63,4.48-21.67v-9.37" transform="translate(-35 -34.75)"/><path class="cls-1" d="M35,325h94c22.38,0,31.33,0,35.81,5.21s4.48,15.63,4.48,21.67v9.38" transform="translate(-35 -34.75)"/><path class="cls-1" d="M35,400h94c22.38,0,31.33,0,35.81-5.21s4.48-15.63,4.48-21.67v-9.37" transform="translate(-35 -34.75)"/><path class="cls-1" d="M35,470h94c22.38,0,31.33,0,35.81,5.21s4.48,15.63,4.48,21.67v9.38" transform="translate(-35 -34.75)"/><path class="cls-1" d="M35,545h94c22.38,0,31.33,0,35.81-5.21s4.48-15.63,4.48-21.67v-9.37" transform="translate(-35 -34.75)"/><path class="cls-1" d="M927.62,35h-94c-22.38,0-31.33,0-35.81,5.21s-4.48,15.63-4.48,21.67v9.38" transform="translate(-35 -34.75)"/><path class="cls-1" d="M927.62,110h-94c-22.38,0-31.33,0-35.81-5.21s-4.48-15.63-4.48-21.67V73.75" transform="translate(-35 -34.75)"/><path class="cls-1" d="M927.62,180h-94c-22.38,0-31.33,0-35.81,5.21s-4.48,15.63-4.48,21.67v9.38" transform="translate(-35 -34.75)"/><path class="cls-1" d="M927.62,255h-94c-22.38,0-31.33,0-35.81-5.21s-4.48-15.63-4.48-21.67v-9.37" transform="translate(-35 -34.75)"/><path class="cls-1" d="M927.62,325h-94c-22.38,0-31.33,0-35.81,5.21s-4.48,15.63-4.48,21.67v9.38" transform="translate(-35 -34.75)"/><path class="cls-1" d="M927.62,400h-94c-22.38,0-31.33,0-35.81-5.21s-4.48-15.63-4.48-21.67v-9.37" transform="translate(-35 -34.75)"/><path class="cls-1" d="M927.62,470h-94c-22.38,0-31.33,0-35.81,5.21s-4.48,15.63-4.48,21.67v9.38" transform="translate(-35 -34.75)"/><path class="cls-1" d="M927.62,545h-94c-22.38,0-31.33,0-35.81-5.21s-4.48-15.63-4.48-21.67v-9.37" transform="translate(-35 -34.75)"/><path class="cls-1" d="M169.29,71.25h94c22.38,0,31.33,0,35.81,11.25s4.48,33.75,4.48,45.83v15.42" transform="translate(-35 -34.75)"/><path class="cls-1" d="M169.29,216.25h94c22.38,0,31.33,0,35.81-11.25s4.48-33.75,4.48-45.83V143.75" transform="translate(-35 -34.75)"/><path class="cls-1" d="M169.29,361.25h94c22.38,0,31.33,0,35.81,11.25s4.48,33.75,4.48,45.83v15.42" transform="translate(-35 -34.75)"/><path class="cls-1" d="M169.29,506.25h94c22.38,0,31.33,0,35.81-11.25s4.48-33.75,4.48-45.83V433.75" transform="translate(-35 -34.75)"/><path class="cls-1" d="M793.33,71.25h-94c-22.38,0-31.33,0-35.81,11.25S659,116.25,659,128.33v15.42" transform="translate(-35 -34.75)"/><path class="cls-1" d="M793.33,216.25h-94c-22.38,0-31.33,0-35.81-11.25S659,171.25,659,159.17V143.75" transform="translate(-35 -34.75)"/><path class="cls-1" d="M793.33,361.25h-94c-22.38,0-31.33,0-35.81,11.25S659,406.25,659,418.33v15.42" transform="translate(-35 -34.75)"/><path class="cls-1" d="M793.33,506.25h-94c-22.38,0-31.33,0-35.81-11.25S659,461.25,659,449.17V433.75" transform="translate(-35 -34.75)"/><path class="cls-1" d="M303.57,143.75h94c22.38,0,31.33,0,35.81,23.33s4.48,70,4.48,94.17v27.5" transform="translate(-35 -34.75)"/><path class="cls-1" d="M303.57,433.75h94c22.38,0,31.33,0,35.81-23.33s4.48-70,4.48-94.17v-27.5" transform="translate(-35 -34.75)"/><path class="cls-1" d="M659,143.75H565c-22.38,0-31.33,0-35.81,23.33s-4.48,70-4.48,94.17v27.5" transform="translate(-35 -34.75)"/><path class="cls-1" d="M659,433.75H565c-22.38,0-31.33,0-35.81-23.33s-4.48-70-4.48-94.17v-27.5" transform="translate(-35 -34.75)"/><path class="cls-1" d="M437.86,288.75h86.9" transform="translate(-35 -34.75)"/><path class="cls-1" d="M481.31,130V288.75" transform="translate(-35 -34.75)"/></svg>